<svg width="854" height="175" viewBox="0 0 854 175" fill="none" xmlns="http://www.w3.org/2000/svg">
<g clip-path="url(#clip0_328_3144)">
<path d="M3.95422 30.5158C1.47399 18.7283 14.0497 9.5195 24.5384 15.4427L134.258 77.4033C143.114 82.4042 143.85 94.8806 135.645 100.889L51.8705 162.234C43.665 168.243 31.9933 163.774 29.8992 153.822L3.95422 30.5158Z" fill="url(#paint0_linear_328_3144)"/>
<path d="M208.743 160.781V15.3261H263.289C274.463 15.3261 283.838 17.4094 291.414 21.5761C299.037 25.7428 304.79 31.4719 308.672 38.7636C312.602 46.0079 314.567 54.2465 314.567 63.4795C314.567 72.8072 312.602 81.0931 308.672 88.3375C304.742 95.5818 298.942 101.287 291.272 105.454C283.601 109.573 274.155 111.633 262.933 111.633H226.783V89.971H259.382C265.916 89.971 271.267 88.8346 275.433 86.5619C279.6 84.2892 282.678 81.1642 284.666 77.1869C286.702 73.2096 287.72 68.6405 287.72 63.4795C287.72 58.3185 286.702 53.7731 284.666 49.8431C282.678 45.9132 279.576 42.8592 275.362 40.6812C271.196 38.4558 265.822 37.3431 259.24 37.3431H235.093V160.781H208.743ZM376.34 162.911C365.687 162.911 356.454 160.568 348.642 155.88C340.829 151.193 334.768 144.635 330.46 136.207C326.198 127.779 324.068 117.93 324.068 106.661C324.068 95.3924 326.198 85.5202 330.46 77.0448C334.768 68.5695 340.829 61.988 348.642 57.3005C356.454 52.613 365.687 50.2693 376.34 50.2693C386.994 50.2693 396.227 52.613 404.039 57.3005C411.852 61.988 417.889 68.5695 422.15 77.0448C426.459 85.5202 428.613 95.3924 428.613 106.661C428.613 117.93 426.459 127.779 422.15 136.207C417.889 144.635 411.852 151.193 404.039 155.88C396.227 160.568 386.994 162.911 376.34 162.911ZM376.482 142.315C382.259 142.315 387.089 140.729 390.971 137.556C394.854 134.337 397.742 130.028 399.636 124.63C401.577 119.232 402.548 113.219 402.548 106.59C402.548 99.9142 401.577 93.8772 399.636 88.4795C397.742 83.0344 394.854 78.702 390.971 75.4823C387.089 72.2626 382.259 70.6528 376.482 70.6528C370.564 70.6528 365.64 72.2626 361.71 75.4823C357.827 78.702 354.915 83.0344 352.974 88.4795C351.08 93.8772 350.133 99.9142 350.133 106.59C350.133 113.219 351.08 119.232 352.974 124.63C354.915 130.028 357.827 134.337 361.71 137.556C365.64 140.729 370.564 142.315 376.482 142.315ZM444.435 160.781V51.6897H470.145V160.781H444.435ZM457.361 36.2068C453.289 36.2068 449.785 34.8573 446.85 32.1585C443.914 29.4123 442.446 26.1215 442.446 22.2863C442.446 18.4037 443.914 15.113 446.85 12.4142C449.785 9.66794 453.289 8.29484 457.361 8.29484C461.48 8.29484 464.984 9.66794 467.872 12.4142C470.808 15.113 472.276 18.4037 472.276 22.2863C472.276 26.1215 470.808 29.4123 467.872 32.1585C464.984 34.8573 461.48 36.2068 457.361 36.2068ZM516.294 96.8602V160.781H490.583V51.6897H515.157V70.2267H516.436C518.945 64.1187 522.946 59.2655 528.438 55.667C533.978 52.0685 540.82 50.2693 548.964 50.2693C556.492 50.2693 563.05 51.8791 568.637 55.0988C574.272 58.3185 578.628 62.9823 581.705 69.0903C584.83 75.1983 586.369 82.6083 586.322 91.3204V160.781H560.612V95.2977C560.612 88.006 558.718 82.3005 554.93 78.1812C551.189 74.0619 546.005 72.0022 539.376 72.0022C534.878 72.0022 530.877 72.9965 527.373 74.9852C523.917 76.9265 521.194 79.7437 519.205 83.4369C517.264 87.1301 516.294 91.6045 516.294 96.8602ZM660.933 51.6897V71.5761H598.22V51.6897H660.933ZM613.703 25.5534H639.413V127.968C639.413 131.425 639.934 134.076 640.975 135.923C642.064 137.722 643.485 138.953 645.237 139.616C646.989 140.279 648.93 140.61 651.061 140.61C652.67 140.61 654.138 140.492 655.464 140.255C656.837 140.018 657.879 139.805 658.589 139.616L662.921 159.715C661.548 160.189 659.583 160.71 657.026 161.278C654.517 161.846 651.439 162.177 647.794 162.272C641.354 162.462 635.554 161.491 630.393 159.36C625.232 157.182 621.136 153.82 618.106 149.275C615.123 144.73 613.655 139.048 613.703 132.23V25.5534ZM723.558 162.911C712.621 162.911 703.175 160.639 695.22 156.093C687.313 151.5 681.229 145.014 676.968 136.633C672.706 128.205 670.575 118.285 670.575 106.874C670.575 95.6528 672.706 85.8043 676.968 77.3289C681.276 68.8062 687.29 62.1774 695.007 57.4426C702.725 52.6604 711.792 50.2693 722.209 50.2693C728.933 50.2693 735.277 51.3583 741.243 53.5363C747.256 55.667 752.559 58.9814 757.152 63.4795C761.792 67.9776 765.438 73.7068 768.09 80.667C770.741 87.5799 772.067 95.8185 772.067 105.383V113.266H682.649V95.9369H747.422C747.375 91.0126 746.309 86.6329 744.226 82.7977C742.143 78.9151 739.231 75.8611 735.49 73.6358C731.797 71.4104 727.488 70.2977 722.564 70.2977C717.308 70.2977 712.692 71.5761 708.715 74.1329C704.737 76.6424 701.636 79.9568 699.411 84.0761C697.233 88.1481 696.12 92.6225 696.073 97.4994V112.627C696.073 118.972 697.233 124.417 699.553 128.962C701.873 133.461 705.116 136.917 709.283 139.332C713.45 141.699 718.326 142.883 723.914 142.883C727.654 142.883 731.04 142.362 734.07 141.32C737.1 140.231 739.728 138.645 741.953 136.562C744.179 134.479 745.86 131.898 746.996 128.82L771.002 131.519C769.486 137.864 766.598 143.404 762.337 148.139C758.123 152.826 752.725 156.472 746.144 159.076C739.562 161.633 732.034 162.911 723.558 162.911ZM787.818 160.781V51.6897H812.747V69.8715H813.883C815.872 63.5742 819.281 58.721 824.11 55.3119C828.987 51.8554 834.551 50.1272 840.801 50.1272C842.221 50.1272 843.807 50.1982 845.559 50.3403C847.358 50.435 848.85 50.6007 850.034 50.8375V74.488C848.945 74.1092 847.216 73.7778 844.849 73.4937C842.529 73.1623 840.28 72.9965 838.102 72.9965C833.414 72.9965 829.2 74.0145 825.46 76.0505C821.767 78.0392 818.855 80.809 816.724 84.3602C814.593 87.9113 813.528 92.007 813.528 96.6471V160.781H787.818Z" fill="url(#paint1_linear_328_3144)"/>
</g>
<defs>
<linearGradient id="paint0_linear_328_3144" x1="-2.42072" y1="0.218347" x2="166" y2="183" gradientUnits="userSpaceOnUse">
<stop offset="0.217403" stop-color="#111827"/>
<stop offset="1" stop-color="#202834"/>
</linearGradient>
<linearGradient id="paint1_linear_328_3144" x1="206" y1="75" x2="794.949" y2="380.671" gradientUnits="userSpaceOnUse">
<stop offset="0.217403" stop-color="#111827"/>
<stop offset="1" stop-color="#202834"/>
</linearGradient>
<clipPath id="clip0_328_3144">
<rect width="854" height="175" fill="white"/>
</clipPath>
</defs>
</svg>
